<svg style="max-height: 500px" xmlns="http://www.w3.org/2000/svg" xmlns:xlink="http://www.w3.org/1999/xlink" version="1.1" viewBox="0 577.5365400000001 596.9575706214688 190.35836058690742" width="596.9575706214688" height="190.35836058690742">
<path data-darkreader-inline-stroke="" style="--darkreader-inline-stroke: var(--darkreader-text-67874c, #66864c);" transform="matrix(1,0,0,-1,3.321,841.89)" stroke-width=".79701" stroke-linecap="butt" stroke-miterlimit="10" stroke-linejoin="miter" fill="none" stroke="#67874c" d="M-3.32065 76.53644C280.14744 416.69816 450.2283 161.57686 648.65597 133.23006"/>
<path data-darkreader-inline-fill="" style="--darkreader-inline-fill: var(--darkreader-text-67874c, #66864c);" transform="matrix(1.27821,-1.12067,-1.12067,-1.27821,77.94647,683.70278)" d="M2.59026 0-1.55415 2.0722 0 0-1.55415-2.0722" fill="#67874c"/>
<path data-darkreader-inline-fill="" style="--darkreader-inline-fill: var(--darkreader-text-67874c, #66864c);" transform="matrix(1.69623,.11174,.11174,-1.69623,302.24626,590.51)" d="M2.59026 0-1.55415 2.0722 0 0-1.55415-2.0722" fill="#67874c"/>
<path data-darkreader-inline-fill="" style="--darkreader-inline-fill: var(--darkreader-text-67874c, #66864c);" transform="matrix(1.551,.6958,.6958,-1.551,529.7252,668.56588)" d="M2.59026 0-1.55415 2.0722 0 0-1.55415-2.0722" fill="#67874c"/>
<path data-darkreader-inline-stroke="" style="--darkreader-inline-stroke: var(--darkreader-text-67874c, #66864c);" transform="matrix(1,0,0,-1,3.321,841.89)" stroke-width=".79701" stroke-linecap="butt" stroke-miterlimit="10" stroke-linejoin="miter" fill="none" stroke="#67874c" d="M-3.32065 19.84282C280.14744 360.00453 450.2283 104.88324 648.65597 76.53644"/>
<path data-darkreader-inline-fill="" style="--darkreader-inline-fill: var(--darkreader-text-67874c, #66864c);" transform="matrix(1.27821,-1.12067,-1.12067,-1.27821,77.94647,740.39639)" d="M2.59026 0-1.55415 2.0722 0 0-1.55415-2.0722" fill="#67874c"/>
<path data-darkreader-inline-fill="" style="--darkreader-inline-fill: var(--darkreader-text-67874c, #66864c);" transform="matrix(1.69623,.11174,.11174,-1.69623,302.24626,647.2036)" d="M2.59026 0-1.55415 2.0722 0 0-1.55415-2.0722" fill="#67874c"/>
<path data-darkreader-inline-fill="" style="--darkreader-inline-fill: var(--darkreader-text-67874c, #66864c);" transform="matrix(1.551,.6958,.6958,-1.551,529.7252,725.25949)" d="M2.59026 0-1.55415 2.0722 0 0-1.55415-2.0722" fill="#67874c"/>
<path data-darkreader-inline-stroke="" style="--darkreader-inline-stroke: var(--darkreader-text-67874c, #66864c);" transform="matrix(1,0,0,-1,3.321,841.89)" stroke-width=".79701" stroke-linecap="butt" stroke-miterlimit="10" stroke-linejoin="miter" fill="none" stroke="#67874c" d="M-3.32065-36.85078C280.14744 303.3109 450.2283 48.18962 648.65597 19.84282"/>
<path data-darkreader-inline-fill="" style="--darkreader-inline-fill: var(--darkreader-text-67874c, #66864c);" transform="matrix(1.27821,-1.12067,-1.12067,-1.27821,77.94647,797.08999)" d="M2.59026 0-1.55415 2.0722 0 0-1.55415-2.0722" fill="#67874c"/>
<path data-darkreader-inline-fill="" style="--darkreader-inline-fill: var(--darkreader-text-67874c, #66864c);" transform="matrix(1.69623,.11174,.11174,-1.69623,302.24626,703.8972)" d="M2.59026 0-1.55415 2.0722 0 0-1.55415-2.0722" fill="#67874c"/>
<path data-darkreader-inline-fill="" style="--darkreader-inline-fill: var(--darkreader-text-67874c, #66864c);" transform="matrix(1.551,.6958,.6958,-1.551,529.7252,781.95309)" d="M2.59026 0-1.55415 2.0722 0 0-1.55415-2.0722" fill="#67874c"/>
<path data-darkreader-inline-stroke="" style="--darkreader-inline-stroke: var(--darkreader-text-67874c, #66864c);" transform="matrix(1,0,0,-1,3.321,841.89)" stroke-width=".79701" stroke-linecap="butt" stroke-miterlimit="10" stroke-linejoin="miter" fill="none" stroke="#67874c" d="M-3.32065 48.18962C280.14744 388.35136 450.2283 133.23006 648.65597 104.88324"/>
<path data-darkreader-inline-fill="" style="--darkreader-inline-fill: var(--darkreader-text-67874c, #66864c);" transform="matrix(1.5587,-.6783,-.6783,-1.5587,181.00641,642.65518)" d="M2.59026 0-1.55415 2.0722 0 0-1.55415-2.0722" fill="#67874c"/>
<path data-darkreader-inline-fill="" style="--darkreader-inline-fill: var(--darkreader-text-67874c, #66864c);" transform="matrix(1.57971,.62784,.62784,-1.57971,415.97257,645.7835)" d="M2.59026 0-1.55415 2.0722 0 0-1.55415-2.0722" fill="#67874c"/>
<path data-darkreader-inline-stroke="" style="--darkreader-inline-stroke: var(--darkreader-text-67874c, #66864c);" transform="matrix(1,0,0,-1,3.321,841.89)" stroke-width=".79701" stroke-linecap="butt" stroke-miterlimit="10" stroke-linejoin="miter" fill="none" stroke="#67874c" d="M-3.32065-8.50398C280.14744 331.6577 450.2283 76.53644 648.65597 48.18962"/>
<path data-darkreader-inline-fill="" style="--darkreader-inline-fill: var(--darkreader-text-67874c, #66864c);" transform="matrix(1.5587,-.6783,-.6783,-1.5587,181.00641,699.34878)" d="M2.59026 0-1.55415 2.0722 0 0-1.55415-2.0722" fill="#67874c"/>
<path data-darkreader-inline-fill="" style="--darkreader-inline-fill: var(--darkreader-text-67874c, #66864c);" transform="matrix(1.57971,.62784,.62784,-1.57971,415.97257,702.4771)" d="M2.59026 0-1.55415 2.0722 0 0-1.55415-2.0722" fill="#67874c"/>
<text xml:space="preserve" transform="matrix(1 0 -0 1 0 841.89)" font-size="9.9626" font-family="Computer Modern"><tspan y="29.888" x="295.147">1</tspan></text>
</svg>