<svg xmlns="http://www.w3.org/2000/svg" xmlns:xlink="http://www.w3.org/1999/xlink" xmlns:inkscape="http://www.inkscape.org/namespaces/inkscape" version="1.1" width="595.276" height="841.89" viewBox="0 0 595.276 841.89">
<path transform="matrix(1,0,0,-1,3.321,841.89)" stroke-width=".79701" stroke-linecap="butt" stroke-miterlimit="10" stroke-linejoin="miter" fill="none" stroke="#67874c" d="M294.3207 880.1691C328.33723 880.1691 328.33723 863.1609 379.36198 846.15267 430.38679 829.1444 430.38679 812.1361 362.35374 812.1361 273.91084 812.1361 260.3042 829.1444 260.3042 846.15267 260.3042 948.2022 268.80833 880.1691 294.3207 880.17117Z"/>
<path transform="matrix(1.53017,.7405,.7405,-1.53017,353.01927,-16.503968)" d="M2.59026 0-1.55415 2.0722 0 0-1.55415-2.0722" fill="#67874c"/>
<path transform="matrix(-1.69975,-.02385,-.02385,1.69975,361.0663,29.753968)" d="M2.59026 0-1.55415 2.0722 0 0-1.55415-2.0722" fill="#67874c"/>
<path transform="matrix(.04411,-1.69931,-1.69931,-.04411,263.7833,-25.953186)" d="M2.59026 0-1.55415 2.0722 0 0-1.55415-2.0722" fill="#67874c"/>
<path transform="matrix(1.63574,.46268,.46268,-1.63574,289.3876,-40.045778)" d="M2.59026 0-1.55415 2.0722 0 0-1.55415-2.0722" fill="#67874c"/>
<path transform="matrix(1,0,0,-1,3.321,841.89)" stroke-width=".79701" stroke-linecap="butt" stroke-miterlimit="10" stroke-linejoin="miter" fill="none" stroke="#67874c" d="M294.3207 902.84628C351.01435 902.84628 351.01435 874.49948 436.05476 846.15267 521.09518 817.80587 521.09518 789.459 407.70796 789.459 260.30464 789.459 237.62709 817.80587 237.62709 846.15267 237.62709 1016.2335 251.8005 902.84628 294.3207 902.84628Z"/>
<path transform="matrix(1.53017,.74048,.74048,-1.53017,392.58677,-23.382264)" d="M2.59026 0-1.55415 2.0722 0 0-1.55415-2.0722" fill="#67874c"/>
<path transform="matrix(-1.69975,-.02385,-.02385,1.69975,400.39414,52.38965)" d="M2.59026 0-1.55415 2.0722 0 0-1.55415-2.0722" fill="#67874c"/>
<path transform="matrix(.04417,-1.69931,-1.69931,-.04417,241.28832,-43.37433)" d="M2.59026 0-1.55415 2.0722 0 0-1.55415-2.0722" fill="#67874c"/>
<path transform="matrix(1.6361,.46141,.46141,-1.6361,286.7304,-63.089418)" d="M2.59026 0-1.55415 2.0722 0 0-1.55415-2.0722" fill="#67874c"/>
<path transform="matrix(1,0,0,-1,3.321,841.89)" stroke-width=".79701" stroke-linecap="butt" stroke-miterlimit="10" stroke-linejoin="miter" fill="none" stroke="#67874c" d="M294.3207 925.5234C373.6914 925.5234 373.6914 885.83798 492.7475 846.15267 611.8036 806.4673 611.8036 766.7819 453.06214 766.7819 246.69841 766.7819 214.95 806.4673 214.95 846.15267 214.95 1084.2648 234.79268 925.5234 294.3207 925.5324Z"/>
<path transform="matrix(1.53017,.74048,.74048,-1.53017,432.14958,-30.262818)" d="M2.59026 0-1.55415 2.0722 0 0-1.55415-2.0722" fill="#67874c"/>
<path transform="matrix(-1.69975,-.02385,-.02385,1.69975,439.7334,75.02551)" d="M2.59026 0-1.55415 2.0722 0 0-1.55415-2.0722" fill="#67874c"/>
<path transform="matrix(.04417,-1.69931,-1.69931,-.04417,218.79329,-60.786867)" d="M2.59026 0-1.55415 2.0722 0 0-1.55415-2.0722" fill="#67874c"/>
<path transform="matrix(1.6363,.4606,.4606,-1.6363,284.07319,-86.1438)" d="M2.59026 0-1.55415 2.0722 0 0-1.55415-2.0722" fill="#67874c"/>
<path transform="matrix(1,0,0,-1,3.321,841.89)" stroke-width=".79701" stroke-linecap="butt" stroke-miterlimit="10" stroke-linejoin="miter" fill="none" stroke="#67874c" d="M294.3207 891.5077C339.67579 891.5077 339.67579 868.83016 407.70838 846.15267 475.74098 823.4751 475.74098 800.7976 385.03086 800.7976 267.10774 800.7976 248.96566 823.4751 248.96566 846.15267 248.96566 982.21786 260.30445 891.5077 294.3207 891.5101Z"/>
<path transform="matrix(1.57283,.64488,.64488,-1.57283,325.32237,-45.728517)" d="M2.59026 0-1.55415 2.0722 0 0-1.55415-2.0722" fill="#67874c"/>
<path transform="matrix(.7725,1.51428,1.51428,-.7725,456.61344,17.679139)" d="M2.59026 0-1.55415 2.0722 0 0-1.55415-2.0722" fill="#67874c"/>
<path transform="matrix(-1.63869,-.4521,-.4521,1.63869,294.71586,33.097475)" d="M2.59026 0-1.55415 2.0722 0 0-1.55415-2.0722" fill="#67874c"/>
<path transform="matrix(.69518,-1.55127,-1.55127,-.69518,254.72661,-72.56952)" d="M2.59026 0-1.55415 2.0722 0 0-1.55415-2.0722" fill="#67874c"/>
<path transform="matrix(1,0,0,-1,3.321,841.89)" stroke-width=".79701" stroke-linecap="butt" stroke-miterlimit="10" stroke-linejoin="miter" fill="none" stroke="#67874c" d="M294.3207 914.1848C362.35289 914.1848 362.35289 880.1687 464.40113 846.15267 566.44937 812.13656 566.44937 778.1205 430.38505 778.1205 253.50153 778.1205 226.28855 812.13656 226.28855 846.15267 226.28855 1050.2492 243.29659 914.1848 294.3207 914.19796Z"/>
<path transform="matrix(1.57283,.64488,.64488,-1.57283,341.1994,-65.625919)" d="M2.59026 0-1.55415 2.0722 0 0-1.55415-2.0722" fill="#67874c"/>
<path transform="matrix(.77168,1.51472,1.51472,-.77168,537.1044,30.617676)" d="M2.59026 0-1.55415 2.0722 0 0-1.55415-2.0722" fill="#67874c"/>
<path transform="matrix(-1.63867,-.45212,-.45212,1.63867,291.12355,51.189699)" d="M2.59026 0-1.55415 2.0722 0 0-1.55415-2.0722" fill="#67874c"/>
<path transform="matrix(.69653,-1.55066,-1.55066,-.69653,234.1724,-108.74695)" d="M2.59026 0-1.55415 2.0722 0 0-1.55415-2.0722" fill="#67874c"/>
<text xml:space="preserve" transform="matrix(1 0 -0 1 0 841.89)" font-size="9.9626" font-family="Computer Modern"><tspan y="29.888" x="295.147">1</tspan></text>
</svg>
