<svg viewBox="0 577.5365400000001 596.9575706214688 264.35346" version="1.1" xmlns:xlink="http://www.w3.org/1999/xlink" xmlns="http://www.w3.org/2000/svg" style="max-height: 500px" width="596.9575706214688" height="264.35346">
<path d="M-3.32065 76.53644C280.14744 416.69816 450.2283 161.57686 648.65597 133.23006" stroke="#67874c" fill="none" stroke-linejoin="miter" stroke-miterlimit="10" stroke-linecap="butt" stroke-width=".79701" transform="matrix(1,0,0,-1,3.321,841.89)" style="--darkreader-inline-stroke: var(--darkreader-text-67874c, #66864c);" data-darkreader-inline-stroke=""/>
<path fill="#67874c" d="M2.59026 0-1.55415 2.0722 0 0-1.55415-2.0722" transform="matrix(1.27821,-1.12067,-1.12067,-1.27821,77.94647,683.70278)" style="--darkreader-inline-fill: var(--darkreader-text-67874c, #66864c);" data-darkreader-inline-fill=""/>
<path fill="#67874c" d="M2.59026 0-1.55415 2.0722 0 0-1.55415-2.0722" transform="matrix(1.69623,.11174,.11174,-1.69623,302.24626,590.51)" style="--darkreader-inline-fill: var(--darkreader-text-67874c, #66864c);" data-darkreader-inline-fill=""/>
<path fill="#67874c" d="M2.59026 0-1.55415 2.0722 0 0-1.55415-2.0722" transform="matrix(1.551,.6958,.6958,-1.551,529.7252,668.56588)" style="--darkreader-inline-fill: var(--darkreader-text-67874c, #66864c);" data-darkreader-inline-fill=""/>
<path d="M-3.32065 19.84282C280.14744 360.00453 450.2283 104.88324 648.65597 76.53644" stroke="#67874c" fill="none" stroke-linejoin="miter" stroke-miterlimit="10" stroke-linecap="butt" stroke-width=".79701" transform="matrix(1,0,0,-1,3.321,841.89)" style="--darkreader-inline-stroke: var(--darkreader-text-67874c, #66864c);" data-darkreader-inline-stroke=""/>
<path fill="#67874c" d="M2.59026 0-1.55415 2.0722 0 0-1.55415-2.0722" transform="matrix(1.27821,-1.12067,-1.12067,-1.27821,77.94647,740.39639)" style="--darkreader-inline-fill: var(--darkreader-text-67874c, #66864c);" data-darkreader-inline-fill=""/>
<path fill="#67874c" d="M2.59026 0-1.55415 2.0722 0 0-1.55415-2.0722" transform="matrix(1.69623,.11174,.11174,-1.69623,302.24626,647.2036)" style="--darkreader-inline-fill: var(--darkreader-text-67874c, #66864c);" data-darkreader-inline-fill=""/>
<path fill="#67874c" d="M2.59026 0-1.55415 2.0722 0 0-1.55415-2.0722" transform="matrix(1.551,.6958,.6958,-1.551,529.7252,725.25949)" style="--darkreader-inline-fill: var(--darkreader-text-67874c, #66864c);" data-darkreader-inline-fill=""/>
<path d="M-3.32065-36.85078C280.14744 303.3109 450.2283 48.18962 648.65597 19.84282" stroke="#67874c" fill="none" stroke-linejoin="miter" stroke-miterlimit="10" stroke-linecap="butt" stroke-width=".79701" transform="matrix(1,0,0,-1,3.321,841.89)" style="--darkreader-inline-stroke: var(--darkreader-text-67874c, #66864c);" data-darkreader-inline-stroke=""/>
<path fill="#67874c" d="M2.59026 0-1.55415 2.0722 0 0-1.55415-2.0722" transform="matrix(1.27821,-1.12067,-1.12067,-1.27821,77.94647,797.08999)" style="--darkreader-inline-fill: var(--darkreader-text-67874c, #66864c);" data-darkreader-inline-fill=""/>
<path fill="#67874c" d="M2.59026 0-1.55415 2.0722 0 0-1.55415-2.0722" transform="matrix(1.69623,.11174,.11174,-1.69623,302.24626,703.8972)" style="--darkreader-inline-fill: var(--darkreader-text-67874c, #66864c);" data-darkreader-inline-fill=""/>
<path fill="#67874c" d="M2.59026 0-1.55415 2.0722 0 0-1.55415-2.0722" transform="matrix(1.551,.6958,.6958,-1.551,529.7252,781.95309)" style="--darkreader-inline-fill: var(--darkreader-text-67874c, #66864c);" data-darkreader-inline-fill=""/>
<path d="M-3.32065 48.18962C280.14744 388.35136 450.2283 133.23006 648.65597 104.88324" stroke="#67874c" fill="none" stroke-linejoin="miter" stroke-miterlimit="10" stroke-linecap="butt" stroke-width=".79701" transform="matrix(1,0,0,-1,3.321,841.89)" style="--darkreader-inline-stroke: var(--darkreader-text-67874c, #66864c);" data-darkreader-inline-stroke=""/>
<path fill="#67874c" d="M2.59026 0-1.55415 2.0722 0 0-1.55415-2.0722" transform="matrix(1.5587,-.6783,-.6783,-1.5587,181.00641,642.65518)" style="--darkreader-inline-fill: var(--darkreader-text-67874c, #66864c);" data-darkreader-inline-fill=""/>
<path fill="#67874c" d="M2.59026 0-1.55415 2.0722 0 0-1.55415-2.0722" transform="matrix(1.57971,.62784,.62784,-1.57971,415.97257,645.7835)" style="--darkreader-inline-fill: var(--darkreader-text-67874c, #66864c);" data-darkreader-inline-fill=""/>
<path d="M-3.32065-8.50398C280.14744 331.6577 450.2283 76.53644 648.65597 48.18962" stroke="#67874c" fill="none" stroke-linejoin="miter" stroke-miterlimit="10" stroke-linecap="butt" stroke-width=".79701" transform="matrix(1,0,0,-1,3.321,841.89)" style="--darkreader-inline-stroke: var(--darkreader-text-67874c, #66864c);" data-darkreader-inline-stroke=""/>
<path fill="#67874c" d="M2.59026 0-1.55415 2.0722 0 0-1.55415-2.0722" transform="matrix(1.5587,-.6783,-.6783,-1.5587,181.00641,699.34878)" style="--darkreader-inline-fill: var(--darkreader-text-67874c, #66864c);" data-darkreader-inline-fill=""/>
<path fill="#67874c" d="M2.59026 0-1.55415 2.0722 0 0-1.55415-2.0722" transform="matrix(1.57971,.62784,.62784,-1.57971,415.97257,702.4771)" style="--darkreader-inline-fill: var(--darkreader-text-67874c, #66864c);" data-darkreader-inline-fill=""/>
<text font-family="Computer Modern" font-size="9.9626" transform="matrix(1 0 -0 1 0 841.89)" xml:space="preserve"><tspan x="295.147" y="29.888">1</tspan></text>
</svg>